<?xml version="1.0" standalone="no"?>
<!DOCTYPE svg PUBLIC "-//W3C//DTD SVG 20010904//EN"
 "http://www.w3.org/TR/2001/REC-SVG-20010904/DTD/svg10.dtd">
<svg version="1.0" xmlns="http://www.w3.org/2000/svg"
 width="971.000000pt" height="1280.000000pt" viewBox="0 0 971.000000 1280.000000"
 preserveAspectRatio="xMidYMid meet">
<metadata>
Created by potrace 1.15, written by Peter Selinger 2001-2017
</metadata>
<g transform="translate(0.000000,1280.000000) scale(0.100000,-0.100000)"
fill="#000000" stroke="none">
<path d="M7937 12789 c-21 -12 -22 -31 -1 -72 11 -21 12 -28 3 -19 -23 22 -39
14 -39 -20 0 -27 15 -47 105 -135 72 -71 105 -110 105 -125 0 -28 -51 -138
-73 -156 -13 -11 -21 -6 -56 41 -22 30 -54 65 -71 77 -34 24 -78 24 -93 -2
-22 -35 21 -97 174 -251 140 -140 172 -181 152 -196 -4 -3 -23 -35 -41 -71
-18 -36 -59 -101 -90 -145 -187 -258 -234 -325 -301 -430 -41 -63 -100 -139
-130 -168 -52 -49 -71 -59 -251 -127 -107 -41 -242 -99 -300 -129 -58 -29
-148 -75 -202 -102 -53 -26 -119 -64 -147 -85 -28 -20 -68 -40 -89 -45 -57
-13 -322 -42 -329 -36 -9 9 35 73 73 106 19 17 61 44 93 60 46 24 66 28 99 24
30 -4 42 -2 42 7 0 15 97 123 119 131 23 9 134 199 170 290 17 42 37 102 46
135 16 62 20 149 7 140 -5 -3 -17 21 -28 52 -19 58 -56 101 -86 102 -22 0
-111 39 -118 51 -8 12 -134 39 -186 39 -52 0 -105 -10 -99 -19 2 -4 -11 -7
-29 -7 -42 0 -136 -47 -191 -96 -62 -55 -132 -150 -176 -243 -33 -68 -38 -86
-34 -126 7 -59 -1 -80 -63 -161 -28 -36 -78 -121 -112 -189 -71 -141 -99 -181
-154 -221 -33 -24 -49 -28 -102 -28 -45 0 -77 -6 -108 -22 l-45 -22 -203 57
c-112 31 -218 60 -236 63 -19 4 -101 -1 -184 -12 l-150 -18 -292 73 -291 73
-180 103 c-164 94 -202 112 -432 194 -361 129 -616 246 -698 322 -35 32 -54
42 -102 49 -124 21 -404 6 -491 -26 -35 -13 -43 -20 -40 -38 3 -21 6 -21 156
-18 176 3 183 -1 85 -58 -99 -58 -134 -90 -131 -118 5 -45 28 -47 92 -8 73 44
89 46 51 6 -25 -26 -26 -31 -14 -47 7 -10 14 -19 15 -21 0 -1 20 5 44 13 53
19 50 19 50 -7 0 -47 12 -52 117 -49 54 1 117 7 141 12 42 9 42 9 170 -79 179
-124 738 -472 792 -493 25 -9 83 -20 129 -24 47 -4 130 -20 185 -35 153 -42
665 -189 716 -205 l45 -15 -1 -117 c-2 -167 -1 -162 -32 -191 -16 -15 -32 -40
-36 -55 -4 -16 -24 -57 -45 -90 -29 -47 -40 -76 -44 -121 -8 -79 -90 -246
-159 -321 l-50 -55 -30 18 c-51 29 -142 126 -234 250 -166 223 -142 202 -569
510 -110 80 -219 164 -242 188 -23 24 -45 44 -50 44 -16 1 -53 38 -53 54 0 19
-36 40 -56 32 -10 -4 -14 2 -14 22 0 23 -8 32 -47 51 l-47 23 -18 -22 c-18
-23 -41 -18 -68 14 -7 9 -17 16 -22 16 -11 0 -58 -104 -58 -129 0 -10 -7 -24
-15 -31 -8 -7 -15 -19 -15 -26 0 -17 -12 -18 -28 -2 -22 22 -20 3 5 -51 18
-38 55 -81 126 -150 191 -182 227 -220 227 -240 0 -11 11 -33 25 -49 l25 -30
-26 -16 c-13 -10 -33 -14 -43 -11 -10 3 -81 46 -156 96 -166 109 -227 140
-370 191 -219 78 -264 106 -478 297 -158 140 -201 172 -410 297 -287 172 -332
209 -527 439 -203 241 -248 276 -513 406 -250 123 -408 182 -489 185 -80 2
-86 -2 -147 -123 l-42 -81 19 -39 c41 -79 156 -166 415 -313 127 -73 156 -94
213 -157 58 -64 70 -73 101 -73 19 0 48 -8 64 -17 25 -15 35 -15 77 -4 45 11
52 10 88 -10 75 -43 115 -82 201 -193 93 -119 572 -664 644 -732 98 -92 192
-150 502 -310 402 -208 467 -260 677 -539 127 -168 149 -192 499 -530 67 -66
157 -160 199 -210 145 -172 222 -252 283 -296 33 -24 64 -43 67 -42 4 1 43
-17 87 -40 l80 -42 1 -135 c1 -140 19 -297 57 -485 19 -99 22 -144 23 -465 1
-195 6 -449 11 -565 9 -200 12 -216 47 -335 55 -182 58 -278 16 -470 -48 -220
-45 -289 27 -645 33 -166 35 -189 29 -295 -7 -129 -13 -161 -58 -308 -31 -100
-31 -106 -21 -185 8 -55 9 -99 2 -132 -17 -89 -23 -451 -9 -580 21 -207 72
-354 133 -383 l27 -13 -35 -43 c-65 -80 -75 -115 -75 -282 -1 -163 5 -198 80
-429 32 -102 56 -241 52 -300 -1 -5 -2 -80 -2 -165 -2 -143 1 -167 34 -318 64
-290 76 -374 76 -526 0 -78 -5 -157 -10 -176 -6 -19 -14 -73 -19 -120 -6 -52
-24 -128 -47 -195 -33 -95 -38 -122 -39 -202 0 -110 13 -134 97 -176 43 -22
74 -29 144 -34 107 -7 180 7 264 48 59 30 60 31 60 71 0 25 -9 57 -24 82 -30
52 -42 108 -57 271 -15 174 -9 257 51 610 27 165 49 325 48 355 -1 30 3 111
10 180 14 135 8 423 -10 520 -5 30 -26 104 -46 164 l-35 109 79 77 c77 75 81
77 199 118 142 48 473 202 600 279 50 30 180 119 290 198 110 78 219 155 242
170 l42 27 28 -20 c60 -43 184 -185 338 -386 235 -308 324 -391 600 -559 114
-70 569 -414 663 -501 32 -30 79 -93 119 -159 85 -141 317 -412 535 -624 180
-175 265 -313 293 -475 l7 -36 -61 -27 c-76 -35 -141 -101 -141 -145 0 -59 61
-94 252 -145 189 -51 417 -59 508 -18 74 33 95 64 94 136 0 83 -19 115 -107
180 -39 29 -77 64 -84 78 -6 13 -22 49 -36 79 -13 30 -50 84 -80 119 -57 65
-158 251 -267 491 -168 372 -240 511 -341 660 -122 181 -205 258 -454 424
-242 160 -328 238 -392 356 -17 30 -61 111 -98 180 -38 69 -151 248 -253 399
-115 171 -204 314 -235 380 -28 58 -61 123 -74 144 -14 22 -24 53 -24 75 0 78
-18 289 -28 322 -6 19 -11 52 -11 72 0 21 -11 67 -25 104 -30 80 -30 78 -5 71
53 -14 -2 67 -103 150 -156 128 -263 232 -287 277 -24 44 -24 45 -7 93 9 26
17 74 17 106 0 68 2 72 91 197 82 115 86 126 104 256 19 133 26 148 92 215 51
53 56 63 74 140 22 91 31 106 94 146 32 20 42 33 43 53 2 63 58 214 88 237 13
9 16 30 15 100 -1 85 -31 289 -45 312 -19 30 86 -7 239 -85 l124 -62 38 19
c20 10 48 19 62 19 48 0 112 41 159 101 25 33 49 59 53 59 14 0 129 178 168
259 34 72 36 81 35 176 0 85 -4 111 -28 170 -15 39 -36 98 -46 132 -24 79 -28
87 -45 73 -10 -8 -13 5 -17 64 -8 125 -66 216 -147 232 -18 4 -57 -2 -100 -15
-74 -22 -142 -26 -206 -11 -51 12 -143 14 -222 4 -56 -6 -70 -4 -123 20 -87
39 -123 43 -149 17 -12 -12 -21 -34 -21 -52 0 -24 -12 -42 -55 -83 -44 -43
-66 -56 -117 -70 -171 -46 -183 -67 -153 -261 7 -49 10 -94 6 -98 -4 -4 -38
-5 -75 -1 -59 6 -69 10 -80 33 -8 14 -24 35 -37 46 -12 11 -19 14 -15 8 4 -7
4 -13 -1 -13 -12 1 -65 75 -122 172 -58 98 -98 143 -138 152 -104 26 -103 25
-91 51 9 19 7 30 -11 58 -14 23 -18 36 -10 39 12 4 -13 49 -106 193 -37 56
-76 135 -106 214 -44 114 -53 129 -103 175 l-54 51 -17 95 c-23 132 -100 321
-193 473 -35 57 -35 57 -23 115 27 120 103 269 185 360 26 29 59 49 117 72 72
30 87 40 152 113 40 45 104 113 142 152 69 69 73 71 225 130 l155 60 152 123
c129 103 172 131 275 180 307 145 674 413 846 617 131 156 182 243 326 562 35
79 92 190 126 249 l63 105 -13 87 c-16 112 -62 274 -100 359 l-30 67 24 75
c33 101 56 193 56 225 0 22 -4 26 -29 26 -26 0 -30 -6 -51 -62 -51 -141 -62
-168 -68 -168 -4 0 -19 19 -34 43 -15 23 -67 81 -115 129 -72 71 -91 85 -106
77z m-2901 -5405 c8 -65 22 -66 45 -3 9 24 22 44 28 43 6 -1 15 -2 21 -2 5 -1
12 -25 16 -53 5 -36 10 -49 20 -45 9 3 14 -2 14 -13 0 -24 37 -71 56 -71 9 0
15 12 15 33 2 31 2 31 6 4 3 -18 9 -27 17 -24 8 3 20 -9 29 -27 9 -21 31 -41
56 -53 39 -19 41 -20 41 -2 0 10 4 20 9 23 5 3 3 23 -5 43 -7 21 -13 44 -14
52 0 29 16 -2 40 -77 14 -41 30 -77 37 -80 17 -5 44 54 37 82 -4 17 -1 25 12
30 10 4 21 1 25 -6 6 -9 11 -9 24 2 15 13 20 12 35 -8 10 -12 25 -22 34 -22
10 0 16 -8 16 -21 0 -18 5 -21 34 -17 29 3 37 0 45 -19 15 -33 31 -28 31 10 1
76 33 63 67 -27 18 -49 41 -64 35 -23 -4 22 -4 22 16 2 28 -29 272 -364 272
-374 0 -4 -34 -66 -76 -137 -150 -256 -314 -618 -369 -819 -9 -33 -40 -235
-69 -450 -44 -332 -50 -395 -40 -425 43 -126 55 -174 65 -245 14 -106 28 -168
39 -175 31 -19 69 -390 40 -390 -5 0 -10 -7 -10 -15 0 -9 -19 -36 -42 -61 -31
-34 -71 -60 -154 -100 -227 -109 -404 -255 -600 -495 -57 -70 -110 -129 -118
-132 -11 -5 -14 28 -18 191 -5 194 -6 199 -42 312 -75 230 -95 365 -75 490 6
41 13 104 15 140 3 77 91 482 106 491 6 4 37 121 69 260 45 193 59 273 59 332
0 82 -55 477 -92 662 -17 82 -22 145 -22 245 0 149 15 232 97 560 25 96 57
241 73 322 15 81 31 145 35 142 4 -2 11 -29 15 -60z"/>
</g>
</svg>
